
  <svg width="22" height="22" viewBox="0 0 22 22" fill="none" xmlns="http://www.w3.org/2000/svg">
    <path fill-rule="evenodd" clip-rule="evenodd" d="M11.0222 3.66659C8.63647 3.66657 6.64895 5.49532 6.4508 7.87285L6.13058 11.715C6.00467 13.2257 5.59165 14.6986 4.91368 16.0545L4.69101 16.4999H17.3243L17.0829 16.0047C16.4359 14.6779 16.0411 13.2425 15.9185 11.7715L15.5936 7.8729C15.3955 5.49537 13.408 3.6666 11.0222 3.66659ZM4.6238 7.72058C4.90114 4.39285 7.68299 1.83323 11.0223 1.83325C14.3615 1.83328 17.1433 4.39292 17.4206 7.72065L17.7455 11.6192C17.8492 12.8639 18.1833 14.0785 18.7308 15.2012L20.258 18.3332H14.2078V21.0832H7.79114V18.3332H1.72461L3.2739 15.2346C3.84756 14.0873 4.19704 12.841 4.30358 11.5627L4.6238 7.72058ZM9.62447 18.3332V19.2499H12.3745V18.3332H9.62447Z" fill="white"/>
  </svg>


