
  <svg width="22" height="22" viewBox="0 0 22 22" fill="none" xmlns="http://www.w3.org/2000/svg">
    <path fill-rule="evenodd" clip-rule="evenodd" d="M10.463 3.75008L9.16667 5.04644V5.58342H12.8333V5.04644L11.537 3.75008H10.463ZM14.6667 4.66675V7.41675H7.33333L7.33333 4.66675L4.58333 4.66675L4.58333 18.3334H17.4167V4.66675L14.6667 4.66675ZM8.78697 2.83341L9.70364 1.91675L12.2964 1.91675L13.213 2.83341H19.25V20.1667H2.75L2.75 2.83341H8.78697ZM6.41667 10.0834L12.8333 10.0834L12.8333 11.9168L6.41667 11.9167L6.41667 10.0834ZM15.5833 15.5834L6.41667 15.5834L6.41667 13.7501L15.5833 13.7501L15.5833 15.5834Z" fill="white"/>
  </svg>



