
  <svg width="21" height="20" viewBox="0 0 21 20" fill="none" xmlns="http://www.w3.org/2000/svg">
    <path fill-rule="evenodd" clip-rule="evenodd" d="M10.9173 0.833252H11.834C13.2822 0.833252 14.7048 1.21445 15.959 1.93854C17.2131 2.66263 18.2546 3.70409 18.9787 4.95825C19.7028 6.21241 20.084 7.63508 20.084 9.08325C20.084 10.4659 19.796 12.1752 19.0445 13.4768L18.5882 14.2671L10.9173 9.88377V0.833252ZM12.7507 2.7324V8.81984L17.8315 11.7232C18.1135 10.9089 18.2507 9.95221 18.2507 9.08325C18.2507 7.95689 17.9542 6.85038 17.391 5.87492C16.8278 4.89946 16.0178 4.08944 15.0423 3.52626C14.3334 3.11697 13.5553 2.84854 12.7507 2.7324ZM8.16732 4.56573C7.36267 4.68187 6.58455 4.95031 5.87565 5.35959C4.90019 5.92277 4.09017 6.7328 3.52699 7.70825C2.96381 8.68371 2.66732 9.79023 2.66732 10.9166C2.66732 12.0429 2.96381 13.1495 3.52699 14.1249C4.09017 15.1004 4.90019 15.9104 5.87565 16.4736C6.85111 17.0368 7.95762 17.3333 9.08398 17.3333C10.2103 17.3333 11.3169 17.0368 12.2923 16.4736C13.0012 16.0643 13.6227 15.5246 14.1257 14.8859L8.16732 11.4458V4.56573ZM4.95898 3.77188C6.21314 3.04779 7.63581 2.66659 9.08398 2.66659H10.0007V10.3873L16.687 14.2477L16.2287 15.0416C15.5046 16.2957 14.4631 17.3372 13.209 18.0613C11.9548 18.7854 10.5322 19.1666 9.08398 19.1666C7.63581 19.1666 6.21314 18.7854 4.95898 18.0613C3.70483 17.3372 2.66336 16.2957 1.93927 15.0416C1.21519 13.7874 0.833984 12.3648 0.833984 10.9166C0.833984 9.46841 1.21519 8.04574 1.93927 6.79159C2.66336 5.53743 3.70483 4.49596 4.95898 3.77188Z" fill="white"/>
  </svg>

