<svg width="14" height="14" viewBox="0 0 14 14" fill="none" xmlns="http://www.w3.org/2000/svg">
  <path fill-rule="evenodd" clip-rule="evenodd" d="M8.34796 0.333374L9.17764 2.489L11.34 1.80972L13.0057 3.95211L11.8761 5.96831L13.7476 7.28275L13.1561 9.94092L10.9163 10.2919L11.0809 12.6072L8.65891 13.8036L7.00012 12.2312L5.34134 13.8036L2.91934 12.6072L3.08394 10.2919L0.844183 9.94092L0.252686 7.28275L2.1242 5.96831L0.994579 3.95211L2.66025 1.80972L4.82261 2.489L5.65229 0.333379L8.34796 0.333374ZM6.56779 1.66671L5.6173 4.13622L3.14433 3.35936L2.59017 4.07214L3.87605 6.36725L1.74756 7.86217L1.94831 8.76434L4.5008 9.16433L4.31283 11.8084L5.09858 12.1965L7.00012 10.394L8.90167 12.1965L9.68742 11.8084L9.49944 9.16433L12.0519 8.76434L12.2527 7.86217L10.1242 6.36725L11.4101 4.07214L10.8559 3.35936L8.38295 4.13622L7.43246 1.66671L6.56779 1.66671ZM5.66679 5.66671H8.33346V8.33337H5.66679V5.66671Z" fill="#697387"/>
</svg>
