<svg width="19" height="19" viewBox="0 0 19 19" fill="none" xmlns="http://www.w3.org/2000/svg">
  <path fill-rule="evenodd" clip-rule="evenodd" d="M0 9.165C0 4.10331 4.10406 0 9.16667 0C14.2293 0 18.3333 4.10331 18.3333 9.165C18.3333 14.2267 14.2293 18.33 9.16667 18.33C4.10406 18.33 0 14.2267 0 9.165ZM9.16667 1.833C5.11658 1.833 1.83333 5.11565 1.83333 9.165C1.83333 13.2144 5.11658 16.497 9.16667 16.497C13.2168 16.497 16.5 13.2144 16.5 9.165C16.5 5.11565 13.2168 1.833 9.16667 1.833ZM10.0833 4.5825V8.2485H13.75V10.0815H10.0833V13.7475H8.25V10.0815H4.58333V8.2485H8.25V4.5825H10.0833Z" fill="#089562"/>
</svg>
