<svg width="43" height="44" viewBox="0 0 43 44" fill="none" xmlns="http://www.w3.org/2000/svg">
  <path fill-rule="evenodd" clip-rule="evenodd" d="M18.8742 4.24992C14.8471 4.24992 11.5825 7.51451 11.5825 11.5416L11.5825 16.7499L7.41583 16.7499L7.41584 11.5416C7.41584 5.21332 12.5459 0.083252 18.8742 0.083252C25.2024 0.083252 30.3325 5.21332 30.3325 11.5416L30.3325 16.7499L26.1658 16.7499L26.1658 11.5416C26.1658 7.51451 22.9013 4.24992 18.8742 4.24992ZM18.8742 10.4999C18.2989 10.4999 17.8325 10.9663 17.8325 11.5416V36.5416L7.78123 29.0031L6.15166 31.0401L16.5034 39.6666H34.8177L37.2932 24.8136L19.9158 22.7692L19.9158 11.5416C19.9158 10.9663 19.4495 10.4999 18.8742 10.4999ZM13.6658 11.5416C13.6658 8.6651 15.9977 6.33325 18.8742 6.33325C21.7506 6.33325 24.0825 8.6651 24.0825 11.5416L24.0825 19.064L42.1219 21.1863L38.6375 42.0924C38.4701 43.097 37.6009 43.8333 36.5825 43.8333H14.9949L0.34668 31.6264L7.05044 23.2467L13.6658 28.2083V11.5416Z" fill="#A9B5C6"/>
</svg>
