<svg width="22" height="21" viewBox="0 0 22 21" fill="none" xmlns="http://www.w3.org/2000/svg">
  <path fill-rule="evenodd" clip-rule="evenodd"
        d="M-1.93469e-07 16.5739L3.50939 13.0646L3.50936 1.82864L5.34269 1.82864L5.34272 13.0646L8.85211 16.5739L4.42606 21L-1.93469e-07 16.5739ZM4.42606 14.7406L2.59272 16.5739L4.42606 18.4073L6.25939 16.5739L4.42606 14.7406ZM6.41667 10.9953L9.92605 7.48592L9.92602 1.82864L11.7594 1.82863L11.7594 7.48591L15.2688 10.9953L11.7594 14.5047L11.7594 20.162L9.92603 20.162L9.92605 14.5047L6.41667 10.9953ZM10.8427 12.8286L12.6761 10.9953L10.8427 9.16197L9.00939 10.9953L10.8427 12.8286ZM12.8333 5.11561L17.2594 0.689553L21.6854 5.11561L18.176 8.625L18.176 20.162L16.3427 20.162L16.3427 8.625L12.8333 5.11561ZM17.2594 6.94894L19.0927 5.11561L17.2594 3.28228L15.4261 5.11561L17.2594 6.94894Z"
        fill="#323846"/>
</svg>
