<svg width="17" height="17" viewBox="0 0 17 17" fill="none" xmlns="http://www.w3.org/2000/svg">
  <path fill-rule="evenodd" clip-rule="evenodd" d="M0.5 6.5C0.5 3.18629 3.18629 0.5 6.5 0.5C9.81371 0.5 12.5 3.18629 12.5 6.5C12.5 7.75113 12.1165 8.91349 11.4614 9.87492H12.4356L16.5606 13.9999L13.9999 16.5606L9.87492 12.4356V11.4614C8.91349 12.1165 7.75112 12.5 6.5 12.5C3.18629 12.5 0.5 9.81371 0.5 6.5ZM11.3749 11.3749V11.8143L13.9999 14.4393L14.4393 13.9999L11.8143 11.3749H11.3749ZM6.5 2C4.01472 2 2 4.01472 2 6.5C2 8.98528 4.01472 11 6.5 11C7.74285 11 8.86682 10.4971 9.68198 9.68198C10.4971 8.86682 11 7.74285 11 6.5C11 4.01472 8.98528 2 6.5 2Z" fill="#697387"/>
</svg>
