

<svg width="20" height="20" viewBox="0 0 20 20" fill="none" xmlns="http://www.w3.org/2000/svg">
  <path fill-rule="evenodd" clip-rule="evenodd" d="M0.833374 9.99992C0.833374 4.93731 4.93743 0.833252 10 0.833252C15.0627 0.833252 19.1667 4.93731 19.1667 9.99992C19.1667 15.0625 15.0627 19.1666 10 19.1666C4.93743 19.1666 0.833374 15.0625 0.833374 9.99992ZM10 2.66659C5.94995 2.66659 2.66671 5.94983 2.66671 9.99992C2.66671 14.05 5.94995 17.3333 10 17.3333C14.0501 17.3333 17.3334 14.05 17.3334 9.99992C17.3334 5.94983 14.0501 2.66659 10 2.66659ZM10.9167 5.41659V9.08325H14.5834V10.9166H10.9167V14.5833H9.08337V10.9166H5.41671V9.08325H9.08337V5.41659H10.9167Z" fill="#c4c4c4"/>
</svg>
